<svg width="96" height="96" viewBox="0 0 96 96" fill="none" xmlns="http://www.w3.org/2000/svg">
<g clip-path="url(#clip0)" filter="url(#filter0_d)">
<path d="M48 82C70.0914 82 88 64.0914 88 42C88 19.9086 70.0914 2 48 2C25.9086 2 8 19.9086 8 42C8 64.0914 25.9086 82 48 82Z" fill="url(#paint0_linear)"/>
<path d="M38.7109 57.6138C37.4764 58.9589 36.0659 60.1399 34.5159 61.12C31.8453 62.8088 28.7587 63.8988 25.4452 64.2089C26.0955 64.2707 26.7547 64.3027 27.4212 64.3027C31.4729 64.3027 35.2518 63.1357 38.4392 61.12C39.4411 60.4866 40.3829 59.7674 41.2584 58.9761C40.3912 58.5523 39.5421 58.0971 38.7109 57.6138Z" fill="url(#paint1_linear)"/>
<path d="M19.9095 36.3189C23.5377 46.5454 31.2218 54.8734 40.9933 59.3726C45.778 55.5613 48.8502 49.6616 48.8502 43.0373C48.8502 42.6414 48.6877 41.9344 48.6259 41.9735C48.6259 41.9829 48.6275 41.9923 48.6275 42.0002C48.6196 41.9954 48.6118 41.9907 48.6055 41.986C43.2706 38.6041 39.5922 32.8425 39.0651 26.1947C39.0212 25.6488 38.9992 25.0951 38.9992 24.5382C38.9992 13.1374 48.2431 3.89349 59.6439 3.89349C59.8166 3.89349 59.9879 3.89741 60.1594 3.90164C56.208 2.63309 51.9956 1.96219 47.6297 2.00188C45.7832 2.01866 43.9666 2.16047 42.1879 2.41945C26.9035 4.64423 16.4731 19.1809 19.4081 34.3449C19.5614 35.1368 19.7286 35.8093 19.9095 36.3189Z" fill="url(#paint2_linear)"/>
<path d="M47.6296 2.00173C46.6979 2.0102 45.7736 2.05067 44.8582 2.12188C48.0235 2.36737 51.085 2.98243 54.0008 3.9222C43.1078 4.49035 34.4485 13.5038 34.4485 24.538C34.4485 25.0949 34.4704 25.6486 34.5144 26.1945C34.9096 31.1804 37.0775 35.6678 40.3875 39.0265C42.8728 41.5485 44.0626 45.0767 43.4867 48.5705C43.4107 49.0325 43.326 49.435 43.2322 49.7396C42.2632 52.8875 40.5613 55.7139 38.3261 58.0209C39.1961 58.5032 40.0855 58.9545 40.9931 59.3724C45.7779 55.5611 48.85 49.6615 48.85 43.0372C48.85 42.6413 48.6875 41.9343 48.6257 41.9733C48.6257 41.9827 48.6273 41.9922 48.6273 42C48.6195 41.9953 48.6116 41.9906 48.6053 41.9859C43.2704 38.6039 39.592 32.8424 39.0649 26.1945C39.021 25.6486 38.9991 25.0949 38.9991 24.538C38.9991 14.6355 45.9736 6.36126 55.2776 4.35749C55.2776 4.35749 55.2778 4.35749 55.278 4.35765C56.6855 4.05443 58.1457 3.89349 59.6439 3.89349C59.8166 3.89349 59.9879 3.89741 60.1594 3.90165C56.2078 2.63279 51.9955 1.96204 47.6296 2.00173Z" fill="url(#paint3_linear)"/>
<path d="M79.6612 59.4337C79.6612 52.0926 75.829 45.6471 70.0565 41.9859C66.8643 39.9624 63.0777 38.7906 59.0165 38.7906C54.9647 38.7906 51.1859 39.9577 47.9984 41.9733C47.9984 41.9828 48 41.9922 48 42C47.9922 41.9953 47.9843 41.9906 47.978 41.9859C42.6431 38.6039 38.9647 32.8424 38.4376 26.1945C38.3937 25.6486 38.3718 25.0949 38.3718 24.538C38.3718 13.1373 47.6157 3.89334 59.0165 3.89334C59.4573 3.89334 59.8933 3.90746 60.3263 3.93413C66.7859 6.02511 72.5271 9.71609 77.0824 14.538C83.851 21.702 88 31.3663 88 42C88 52.6526 79.6612 63.0886 79.6612 59.4337Z" fill="url(#paint4_linear)"/>
<path d="M77.0824 14.538C72.5271 9.71609 66.7859 6.02511 60.3263 3.93413C59.8933 3.90746 59.4573 3.89334 59.0165 3.89334C57.6587 3.89334 56.3318 4.02589 55.0471 4.27624C70.5868 9.76534 81.7224 24.581 81.7224 42C81.7224 46.8072 80.8736 51.4159 79.3191 55.6855C79.5421 56.9013 79.6612 58.1534 79.6612 59.4337C79.6612 63.0886 88 52.6526 88 42C88 31.3663 83.851 21.702 77.0824 14.538Z" fill="url(#paint5_linear)"/>
<path d="M79.6612 59.4337C79.6612 63.0886 78.7122 66.5208 77.0463 69.4996C72.5224 74.2776 66.833 77.9388 60.433 80.0298C56.5192 81.3082 52.3404 82 48 82C30.4502 82 15.5388 70.6965 10.1506 54.9726C13.84 60.5914 20.1977 64.3027 27.4212 64.3027C31.4729 64.3027 35.2518 63.1357 38.4392 61.12C44.2243 57.462 48.0659 51.0086 48.0659 43.658C48.0659 43.0996 48.0439 42.5475 48 42C47.9922 41.9953 47.9843 41.9906 47.9781 41.9859C47.9843 41.9827 47.9906 41.978 47.9984 41.9733C51.1859 39.9576 54.9647 38.7906 59.0165 38.7906C63.0777 38.7906 66.8643 39.9624 70.0565 41.9859C75.829 45.6471 79.6612 52.0926 79.6612 59.4337Z" fill="url(#paint6_linear)"/>
<path d="M88 42C88 41.9758 88 41.9515 88 41.9274C87.9915 37.2359 85.9163 32.7845 82.3735 29.709C75.3547 23.616 66.1928 19.9272 56.1683 19.9272C49.7765 19.9272 43.7363 21.429 38.3774 24.0949C38.3743 24.2424 38.3718 24.3898 38.3718 24.538C38.3718 25.0949 38.3937 25.6486 38.4376 26.1945C38.9647 32.8424 42.6431 38.6039 47.978 41.9859C47.9843 41.9906 47.9922 41.9953 48 42C48 41.9921 47.9984 41.9827 47.9984 41.9733C51.1859 39.9576 54.9647 38.7906 59.0165 38.7906C63.0777 38.7906 66.8643 39.9623 70.0565 41.9859C75.829 45.6471 79.6612 52.0925 79.6612 59.4337C79.6612 63.0886 78.7122 66.5208 77.0463 69.4996C83.8369 62.331 88 52.6525 88 42Z" fill="url(#paint7_linear)"/>
<path d="M88 42C88 41.9757 88 41.9515 88 41.9274C87.9915 37.2359 85.9164 32.7845 82.3735 29.709C81.2325 28.7186 80.0339 27.7928 78.7853 26.9349C80.6773 31.5851 81.7225 36.6701 81.7225 42C81.7225 46.8072 80.8737 51.4159 79.3192 55.6855C79.5423 56.9013 79.6613 58.1534 79.6613 59.4337C79.6613 63.0886 78.7123 66.5208 77.0464 69.4996C83.8369 62.331 88 52.6526 88 42Z" fill="url(#paint8_linear)"/>
<path d="M66.7428 42C66.7428 41.4205 66.7277 40.8445 66.7032 40.2711C64.3274 39.3176 61.734 38.7906 59.0165 38.7906C54.9647 38.7906 51.1859 39.9576 47.9984 41.9733C47.9906 41.978 47.9843 41.9827 47.9781 41.9859C47.9843 41.9906 47.9922 41.9953 48 42C48.0439 42.5474 48.0659 43.0996 48.0659 43.658C48.0659 51.0086 44.2243 57.462 38.4392 61.12C35.2518 63.1357 31.4729 64.3027 27.4212 64.3027C20.1977 64.3027 13.84 60.5914 10.1506 54.9725C12.1195 60.7183 15.3603 65.8734 19.5366 70.1024C29.2322 79.92 45.0088 80.1648 54.8323 70.4753C62.1851 63.2227 66.7428 53.144 66.7428 42Z" fill="url(#paint9_linear)"/>
<path d="M44.8631 81.8778C45.8984 81.9581 46.9443 82 48 82C52.3404 82 56.5192 81.3082 60.4329 80.0298C66.8329 77.9388 72.5224 74.2776 77.0463 69.4996C78.7122 66.5208 79.6612 63.0886 79.6612 59.4337C79.6612 58.1534 79.5421 56.9013 79.3191 55.6855C74.0715 70.098 60.7732 80.6419 44.8631 81.8778Z" fill="url(#paint10_linear)"/>
</g>
<defs>
<filter id="filter0_d" x="0" y="0" width="96" height="96" filterUnits="userSpaceOnUse" color-interpolation-filters="sRGB">
<feFlood flood-opacity="0" result="BackgroundImageFix"/>
<feColorMatrix in="SourceAlpha" type="matrix" values="0 0 0 0 0 0 0 0 0 0 0 0 0 0 0 0 0 0 127 0"/>
<feOffset dy="6"/>
<feGaussianBlur stdDeviation="4"/>
<feColorMatrix type="matrix" values="0 0 0 0 0 0 0 0 0 0 0 0 0 0 0 0 0 0 0.1 0"/>
<feBlend mode="normal" in2="BackgroundImageFix" result="effect1_dropShadow"/>
<feBlend mode="normal" in="SourceGraphic" in2="effect1_dropShadow" result="shape"/>
</filter>
<linearGradient id="paint0_linear" x1="4.16486" y1="42" x2="43.5948" y2="42" gradientUnits="userSpaceOnUse">
<stop stop-color="#FFF3DE"/>
<stop offset="0.593" stop-color="#FFD15B"/>
<stop offset="1" stop-color="#FE7D43"/>
</linearGradient>
<linearGradient id="paint1_linear" x1="10.5098" y1="60.9583" x2="36.2587" y2="60.9583" gradientUnits="userSpaceOnUse">
<stop stop-color="#FFF3DE"/>
<stop offset="0.593" stop-color="#FFD15B"/>
<stop offset="1" stop-color="#FE7D43"/>
</linearGradient>
<linearGradient id="paint2_linear" x1="16.429" y1="30.6863" x2="49.2016" y2="30.6863" gradientUnits="userSpaceOnUse">
<stop stop-color="#D4F2F6"/>
<stop offset="0.6075" stop-color="#02C7DD"/>
<stop offset="1" stop-color="#0290CF"/>
</linearGradient>
<linearGradient id="paint3_linear" x1="13.1765" y1="30.6863" x2="39.5299" y2="30.6863" gradientUnits="userSpaceOnUse">
<stop stop-color="#D4F2F6"/>
<stop offset="0.6075" stop-color="#02C7DD"/>
<stop offset="1" stop-color="#0290CF"/>
</linearGradient>
<linearGradient id="paint4_linear" x1="43.6924" y1="32.0359" x2="85.1829" y2="32.0359" gradientUnits="userSpaceOnUse">
<stop stop-color="#D4F2F6"/>
<stop offset="0.6075" stop-color="#02C7DD"/>
<stop offset="1" stop-color="#0290CF"/>
</linearGradient>
<linearGradient id="paint5_linear" x1="26.1961" y1="32.0359" x2="80.6419" y2="32.0359" gradientUnits="userSpaceOnUse">
<stop stop-color="#D4F2F6"/>
<stop offset="0.6075" stop-color="#02C7DD"/>
<stop offset="1" stop-color="#0290CF"/>
</linearGradient>
<linearGradient id="paint6_linear" x1="20.3994" y1="60.3953" x2="78.0439" y2="60.3953" gradientUnits="userSpaceOnUse">
<stop stop-color="#FFF3DE"/>
<stop offset="0.593" stop-color="#FFD15B"/>
<stop offset="1" stop-color="#FE7D43"/>
</linearGradient>
<linearGradient id="paint7_linear" x1="35.6927" y1="44.7134" x2="92.3972" y2="44.7134" gradientUnits="userSpaceOnUse">
<stop stop-color="#FFF3DE"/>
<stop offset="0.593" stop-color="#FFD15B"/>
<stop offset="1" stop-color="#FE7D43"/>
</linearGradient>
<linearGradient id="paint8_linear" x1="49.8824" y1="48.2173" x2="82.3715" y2="48.2173" gradientUnits="userSpaceOnUse">
<stop stop-color="#FFF3DE"/>
<stop offset="0.593" stop-color="#FFD15B"/>
<stop offset="1" stop-color="#FE7D43"/>
</linearGradient>
<linearGradient id="paint9_linear" x1="9.10588" y1="58.1983" x2="65.5977" y2="58.1983" gradientUnits="userSpaceOnUse">
<stop stop-color="#D4F2F6"/>
<stop offset="0.6075" stop-color="#02C7DD"/>
<stop offset="1" stop-color="#0290CF"/>
</linearGradient>
<linearGradient id="paint10_linear" x1="44.3922" y1="68.8427" x2="86.1459" y2="68.8427" gradientUnits="userSpaceOnUse">
<stop stop-color="#FEA95C"/>
<stop offset="1" stop-color="#F46700"/>
</linearGradient>
<clipPath id="clip0">
<rect width="80" height="80" fill="white" transform="translate(8 2)"/>
</clipPath>
</defs>
</svg>
